<?xml version="1.0" encoding="UTF-8" standalone="no"?>
<svg
   xmlns:dc="http://purl.org/dc/elements/1.1/"
   xmlns:cc="http://creativecommons.org/ns#"
   xmlns:rdf="http://www.w3.org/1999/02/22-rdf-syntax-ns#"
   xmlns:svg="http://www.w3.org/2000/svg"
   xmlns="http://www.w3.org/2000/svg"
   xmlns:sodipodi="http://sodipodi.sourceforge.net/DTD/sodipodi-0.dtd"
   xmlns:inkscape="http://www.inkscape.org/namespaces/inkscape"
   viewBox="0 0 1365.3333 768"
   height="768"
   width="1365.3333"
   id="svg2"
   version="1.1"
   sodipodi:docname="default-cover.svg"
   inkscape:version="0.92.4 (5da689c313, 2019-01-14)">
  <sodipodi:namedview
     pagecolor="#ffffff"
     bordercolor="#666666"
     borderopacity="1"
     objecttolerance="10"
     gridtolerance="10"
     guidetolerance="10"
     inkscape:pageopacity="0"
     inkscape:pageshadow="2"
     inkscape:window-width="640"
     inkscape:window-height="480"
     id="namedview18"
     showgrid="false"
     inkscape:zoom="0.17303468"
     inkscape:cx="302.61179"
     inkscape:cy="74.36069"
     inkscape:current-layer="layer1" />
  <metadata
     id="metadata8">
    <rdf:RDF>
      <cc:Work
         rdf:about="">
        <dc:format>image/svg+xml</dc:format>
        <dc:type
           rdf:resource="http://purl.org/dc/dcmitype/StillImage" />
        <dc:title />
      </cc:Work>
    </rdf:RDF>
  </metadata>
  <defs
     id="defs6">
    <filter
       id="filter902"
       style="color-interpolation-filters:sRGB;">
      <feTurbulence
         id="feTurbulence886"
         type="fractalNoise"
         numOctaves="1"
         baseFrequency="0.14" />
      <feColorMatrix
         id="feColorMatrix888"
         result="result5"
         values="1 0 0 0 0 0 1 0 0 0 0 0 1 0 0 0 0 0 6 -3.5 " />
      <feComposite
         id="feComposite890"
         result="result6"
         in="SourceGraphic"
         operator="in"
         in2="result5" />
      <feMorphology
         id="feMorphology892"
         in="result6"
         operator="dilate"
         radius="5"
         result="result3" />
      <feDisplacementMap
         id="feDisplacementMap894"
         in2="result3"
         in="result3"
         xChannelSelector="R"
         yChannelSelector="A"
         scale="0"
         result="result4" />
      <feComposite
         id="feComposite896"
         k3="1"
         k1="1"
         result="result2"
         operator="arithmetic"
         in2="result4" />
      <feBlend
         id="feBlend898"
         in2="result2"
         in="result2"
         mode="darken" />
      <feConvolveMatrix
         id="feConvolveMatrix900"
         edgeMode="duplicate"
         divisor="2"
         targetY="1"
         targetX="1"
         kernelMatrix="2 0 0 0 1 0 0 0 -1 "
         order="3 3" />
    </filter>
  </defs>
  <g
     id="layer1">
    <rect
       y="-26.638399"
       x="-34.675129"
       height="832.20312"
       width="1470.8035"
       id="rect839-0"
       style="color:#000000;clip-rule:nonzero;display:inline;overflow:visible;visibility:visible;opacity:1;isolation:auto;mix-blend-mode:normal;color-interpolation:sRGB;color-interpolation-filters:linearRGB;solid-color:#000000;solid-opacity:1;vector-effect:none;fill:#7b65ff;fill-opacity:1;fill-rule:nonzero;stroke:none;stroke-width:9;stroke-linecap:round;stroke-linejoin:round;stroke-miterlimit:4;stroke-dasharray:none;stroke-dashoffset:0;stroke-opacity:1;paint-order:normal;color-rendering:auto;image-rendering:auto;shape-rendering:auto;text-rendering:auto;enable-background:accumulate" />
    <rect
       y="-26.638401"
       x="-34.675129"
       height="832.20312"
       width="1470.8035"
       id="rect839"
       style="color:#000000;clip-rule:nonzero;display:inline;overflow:visible;visibility:visible;opacity:1;isolation:auto;mix-blend-mode:normal;color-interpolation:sRGB;color-interpolation-filters:linearRGB;solid-color:#000000;solid-opacity:1;vector-effect:none;fill:#000000;fill-opacity:0.05555556;fill-rule:nonzero;stroke:none;stroke-width:9;stroke-linecap:round;stroke-linejoin:round;stroke-miterlimit:4;stroke-dasharray:none;stroke-dashoffset:0;stroke-opacity:1;paint-order:normal;color-rendering:auto;image-rendering:auto;shape-rendering:auto;text-rendering:auto;enable-background:accumulate;filter:url(#filter902)" />
    <path
       style="fill:#000000;fill-opacity:0.3131313;fill-rule:evenodd;stroke-width:4.87845421"
       id="path8"
       d="M 639.98895,-27.017502 C 577.70087,26.15765 580.49619,124.1365 621.86109,199.98182 c 6.90937,3.09327 13.4626,6.84302 19.5743,11.17705 3.76541,-12.73275 9.67499,-24.54544 17.30682,-35.02341 C 640.60122,141.06475 627.41769,63.399255 704.22942,-13.104668 L 639.98991,-27.016045 Z M 751.94462,145.62609 c -47.28394,0 -86.62182,33.29253 -96.07142,77.65525 13.61235,13.45624 23.89515,30.27616 29.48393,49.11626 2.50275,-0.15733 5.02286,-0.24789 7.56499,-0.24789 17.97323,0 35.0229,4.02203 50.30664,11.2024 21.0315,-27.88619 54.48257,-45.92236 92.04667,-45.92236 4.99848,0 9.92227,0.32153 14.75441,0.9417 -2.83961,-51.78478 -45.57159,-92.74427 -98.08134,-92.74427 z m -177.06841,61.33683 c -54.35574,0 -98.23744,43.88069 -98.23744,98.23744 0,13.95482 2.89604,27.18811 8.12165,39.18325 19.85239,-16.2082 45.18623,-25.94315 72.7524,-25.94315 12.92841,0 25.38748,2.14149 37.01285,6.08248 16.94383,-25.0587 43.20164,-43.32217 73.76223,-49.7993 -12.80986,-39.31885 -49.71632,-67.76171 -93.41754,-67.76171 z m 260.39728,47.45075 c -31.30649,0 -59.09274,14.59783 -77.07959,37.34163 31.58311,20.87445 52.64826,56.42424 53.39468,96.86174 4.35794,-0.4825 8.78319,-0.73863 13.26745,-0.73863 31.57141,0 60.32209,12.27618 81.75315,32.29733 16.67506,-17.59998 26.89883,-41.32049 26.89883,-67.52755 0,-54.35574 -43.88074,-98.23745 -98.23743,-98.23745 z m -142.3533,35.23074 c -55.99489,0 -101.1938,45.20328 -101.1938,101.19376 0,23.96008 8.29098,45.88337 22.16773,63.20528 5.76827,-0.89267 11.67561,-1.3573 17.68975,-1.3573 29.22048,0 55.97049,10.92285 76.29903,28.89557 9.74132,-43.61049 43.31334,-78.32362 86.28521,-89.71481 a 8.7499954,8.7499954 0 0 1 -0.0545,-1.02751 c 0,-55.99491 -45.20328,-101.19376 -101.19377,-101.19376 z m -135.40637,45.78138 c -54.35572,0 -98.23743,43.8807 -98.23743,98.23744 0,42.64207 27.09833,78.80166 64.93708,92.43208 12.43176,-31.80704 38.60811,-56.78035 71.18643,-67.5812 -13.34305,-19.20262 -21.17885,-42.55921 -21.17885,-67.66907 0,-18.34689 4.18629,-35.73471 11.65022,-51.25796 -8.97193,-2.70112 -18.48446,-4.15512 -28.36234,-4.15512 z m 267.33929,70.1229 c -56.53643,0 -102.18409,45.6428 -102.18409,102.18413 0,16.65892 3.97862,32.32608 11.02384,46.19456 13.28253,-4.846 27.61351,-7.49379 42.55184,-7.49379 40.67459,0 76.85028,19.6099 99.58384,49.87243 30.59088,-17.64051 51.20916,-50.63348 51.20916,-88.5732 0,-25.62262 -9.37493,-49.00408 -24.88938,-66.91777 a 8.4943652,8.4943652 0 0 1 -4.67884,-5.0443 c -18.503,-18.66988 -44.18026,-30.21818 -72.61578,-30.21818 z m -193.27458,64.12727 c -54.35574,0 -98.23744,43.8822 -98.23744,98.23744 0,54.35529 43.88069,98.23743 98.23744,98.23743 6.99764,0 13.8089,-0.74 20.37775,-2.12511 2.44116,-44.51542 28.37702,-82.87035 65.59082,-102.85736 -8.027,-16.09499 -12.54738,-34.26672 -12.54738,-53.43856 0,-1.65957 0.0411,-3.3091 0.10885,-4.9526 -18.00196,-20.30952 -44.21439,-33.10279 -73.53293,-33.10279 z m 144.66565,95.11038 c -58.72197,0 -106.13078,47.40683 -106.13078,106.13078 0,58.72389 47.4069,106.13076 106.13078,106.13076 58.7239,0 106.13078,-47.40687 106.13078,-106.13076 0,-21.00223 -6.06683,-40.55655 -16.54429,-57.0145 a 8.8353689,8.8353689 0 0 1 -1.39879,-2.13918 c -19.02942,-28.35603 -51.38479,-46.97755 -88.18784,-46.97755 z" />
  </g>
</svg>
