<svg version="1.1" viewBox="0 0 1365.3 768" xmlns="http://www.w3.org/2000/svg">
	<rect x="-34.675" y="-26.638" width="1470.8" height="832.2" color="#000000" color-rendering="auto" fill="#656565" image-rendering="auto" shape-rendering="auto" solid-color="#000000" style="isolation:auto;mix-blend-mode:normal;paint-order:normal"/>
	<path d="m656.2 102.57c-44.38 37.887-42.389 107.7-12.916 161.74 4.9229 2.204 9.5921 4.8757 13.947 7.9637 2.6829-9.0721 6.8934-17.489 12.331-24.954-12.925-24.988-22.319-80.325 32.41-134.83l-45.771-9.9119zm79.769 123.01c-33.69 0-61.718 23.721-68.451 55.329 9.6988 9.5876 17.025 21.572 21.007 34.995 1.7832-0.1121 3.5788-0.17663 5.3901-0.17663 12.806 0 24.954 2.8657 35.844 7.9817 14.985-19.869 38.819-32.72 65.583-32.72 3.5614 0 7.0696 0.22909 10.513 0.67096-2.0232-36.897-32.47-66.08-69.883-66.08zm-126.16 43.703c-38.729 0-69.994 31.265-69.994 69.994 0 9.9428 2.0634 19.372 5.7867 27.918 14.145-11.548 32.195-18.485 51.836-18.485 9.2115 0 18.089 1.5258 26.372 4.3338 12.072-17.854 30.781-30.867 52.556-35.482-9.127-28.015-35.423-48.28-66.56-48.28zm185.53 33.809c-22.306 0-42.104 10.401-54.919 26.606 22.503 14.873 37.512 40.202 38.044 69.014 3.105-0.34378 6.258-0.52628 9.4531-0.52628 22.495 0 42.98 8.7468 58.249 23.012 11.881-12.54 19.165-29.441 19.165-48.113 0-38.729-31.265-69.994-69.994-69.994zm-101.43 25.102c-39.896 0-72.101 32.207-72.101 72.101 0 17.072 5.9073 32.692 15.795 45.034 4.1099-0.63603 8.3189-0.96708 12.604-0.96708 20.82 0 39.879 7.7826 54.363 20.588 6.9407-31.073 30.861-55.806 61.478-63.922a6.2344 6.2344 0 0 1-0.0388-0.73211c0-39.896-32.207-72.101-72.101-72.101zm-96.477 32.619c-38.729 0-69.994 31.265-69.994 69.994 0 30.383 19.308 56.146 46.268 65.858 8.8576-22.663 27.508-40.456 50.72-48.152-9.507-13.682-15.09-30.324-15.09-48.214 0-13.072 2.9827-25.461 8.3008-36.521-6.3925-1.9246-13.17-2.9605-20.208-2.9605zm190.48 49.963c-40.282 0-72.806 32.521-72.806 72.806 0 11.87 2.8348 23.032 7.8545 32.914 9.4638-3.4528 19.675-5.3393 30.318-5.3393 28.981 0 54.756 13.972 70.954 35.534 21.796-12.569 36.487-36.076 36.487-63.109 0-18.256-6.6796-34.915-17.734-47.679a6.0522 6.0522 0 0 1-3.3337-3.5941c-13.183-13.302-31.479-21.53-51.739-21.53zm-137.71 45.691c-38.729 0-69.994 31.266-69.994 69.994 0 38.728 31.265 69.994 69.994 69.994 4.9858 0 9.8389-0.52725 14.519-1.5141 1.7393-31.717 20.219-59.045 46.734-73.286-5.7192-11.468-8.94-24.415-8.94-38.075 0-1.1824 0.0293-2.3577 0.0776-3.5287-12.826-14.471-31.503-23.586-52.392-23.586zm103.07 67.766c-41.839 0-75.618 33.777-75.618 75.618 0 41.841 33.777 75.618 75.618 75.618 41.841 0 75.618-33.777 75.618-75.618 0-14.964-4.3226-28.897-11.788-40.623a6.2952 6.2952 0 0 1-0.99664-1.5242c-13.558-20.204-36.612-33.472-62.834-33.472z" fill-opacity=".31313" fill-rule="evenodd" stroke-width="3.4759"/>
</svg>
