<svg xmlns:rdf="http://www.w3.org/1999/02/22-rdf-syntax-ns#" xmlns="http://www.w3.org/2000/svg" height="46.515mm" width="240.4mm" version="1.1" xmlns:cc="http://creativecommons.org/ns#" xmlns:dc="http://purl.org/dc/elements/1.1/" viewBox="0 0 851.80392 164.81858">
	<g transform="translate(141.33 -545.67)">
		<g>
			<path d="m331.7 545.67c-12.768 10.9-12.195 30.984-3.7159 46.531 1.4163 0.63406 2.7596 1.4027 4.0124 2.2911 0.77184-2.61 1.9832-5.0314 3.5476-7.1792-3.7186-7.1889-6.421-23.109 9.3241-38.791l-13.168-2.8516zm22.949 35.389c-9.6924 0-17.756 6.8244-19.693 15.918 2.7903 2.7583 4.8981 6.2061 6.0437 10.068 0.51302-0.0323 1.0296-0.0508 1.5507-0.0508 3.6842 0 7.1791 0.82444 10.312 2.2963 4.3111-5.7162 11.168-9.4133 18.868-9.4133 1.0246 0 2.0339 0.0659 3.0244 0.19303-0.58207-10.615-9.3414-19.011-20.105-19.011zm-36.296 12.573c-11.142 0-20.137 8.9948-20.137 20.137 0 2.8605 0.59364 5.5731 1.6648 8.0319 4.0694-3.3224 9.2624-5.3179 14.913-5.3179 2.6501 0 5.204 0.43897 7.587 1.2468 3.4732-5.1366 8.8556-8.8803 15.12-10.208-2.6258-8.0597-10.191-13.89-19.149-13.89zm53.377 9.7266c-6.4173 0-12.113 2.9923-15.8 7.6544 6.474 4.2789 10.792 11.566 10.945 19.855 0.8933-0.0989 1.8004-0.1514 2.7196-0.1514 6.4716 0 12.365 2.5164 16.758 6.6204 3.4181-3.6077 5.5138-8.47 5.5138-13.842 0-11.142-8.9948-20.137-20.137-20.137zm-29.18 7.2217c-11.478 0-20.743 9.2659-20.743 20.743 0 4.9114 1.6995 9.4053 4.544 12.956 1.1824-0.18298 2.3933-0.27823 3.6261-0.27823 5.9897 0 11.473 2.239 15.64 5.9231 1.9968-8.9394 8.8785-16.055 17.687-18.39a1.7936 1.7936 0 0 1 -0.0112 -0.21062c0-11.478-9.2659-20.743-20.743-20.743zm-27.756 9.3844c-11.142 0-20.137 8.9948-20.137 20.137 0 8.7409 5.5547 16.153 13.311 18.947 2.5483-6.5199 7.914-11.639 14.592-13.853-2.7351-3.9362-4.3413-8.7239-4.3413-13.871 0-3.7608 0.85812-7.325 2.3881-10.507-1.8391-0.55369-3.789-0.85173-5.8138-0.85173zm54.8 14.374c-11.589 0-20.946 9.356-20.946 20.946 0 3.4148 0.81555 6.6263 2.2597 9.4691 2.7227-0.99335 5.6603-1.5361 8.7224-1.5361 8.3376 0 15.753 4.0197 20.413 10.223 6.2706-3.616 10.497-10.379 10.497-18.156 0-5.2522-1.9217-10.045-5.1019-13.717a1.7412 1.7412 0 0 1 -0.95908 -1.034c-3.7928-3.827-9.0562-6.1942-14.885-6.1942zm-39.618 13.145c-11.142 0-20.137 8.9951-20.137 20.137s8.9948 20.137 20.137 20.137c1.4344 0 2.8306-0.15169 4.1771-0.43562 0.50039-9.1249 5.8168-16.987 13.445-21.084-1.6454-3.2992-2.572-7.0241-2.572-10.954 0-0.34018 0.008-0.6783 0.0223-1.0152-3.6901-4.1631-9.0632-6.7855-15.073-6.7855zm29.654 19.496c-12.037 0-21.755 9.7176-21.755 21.755s9.7176 21.755 21.755 21.755 21.755-9.7176 21.755-21.755c0-4.3051-1.2436-8.3134-3.3913-11.687a1.8111 1.8111 0 0 1 -0.28673 -0.43849c-3.9007-5.8125-10.533-9.6296-18.077-9.6296z" fill-rule="evenodd" fill="#fff"/>
			<text style="word-spacing:0px;letter-spacing:0px" line-height="125%" transform="matrix(.94410 0 -.20996 1.0592 0 0)" xml:space="preserve" font-size="99.745px" y="641.66418" x="-16.154329" font-family="sans-serif" fill="#000000"><tspan style="letter-spacing:4.74px" dx="0" y="641.66418" x="-16.154329" font-family="&apos;Yu Gothic UI&apos;" fill="#ffffff">PROJECT</tspan></text>
			<text style="word-spacing:0px;letter-spacing:0px" line-height="125%" transform="matrix(.95873 0 -.24163 1.043 0 0)" xml:space="preserve" font-size="101.29px" y="650.62744" x="600.24237" font-family="sans-serif" fill="#000000"><tspan style="letter-spacing:4.8134px" y="650.62744" x="600.24237" font-family="&apos;Yu Gothic UI&apos;" fill="#ffffff">VINYL</tspan></text>
		</g>
	</g>
</svg>
