<?xml version="1.0" encoding="UTF-8" standalone="no"?>
<svg
   xmlns:dc="http://purl.org/dc/elements/1.1/"
   xmlns:cc="http://creativecommons.org/ns#"
   xmlns:rdf="http://www.w3.org/1999/02/22-rdf-syntax-ns#"
   xmlns:svg="http://www.w3.org/2000/svg"
   xmlns="http://www.w3.org/2000/svg"
   xmlns:sodipodi="http://sodipodi.sourceforge.net/DTD/sodipodi-0.dtd"
   xmlns:inkscape="http://www.inkscape.org/namespaces/inkscape"
   height="46.515mm"
   width="240.4mm"
   version="1.1"
   viewBox="0 0 851.80392 164.81858"
   id="svg2"
   inkscape:version="0.91 r13725"
   sodipodi:docname="logo.svg">
  <metadata
     id="metadata22">
    <rdf:RDF>
      <cc:Work
         rdf:about="">
        <dc:format>image/svg+xml</dc:format>
        <dc:type
           rdf:resource="http://purl.org/dc/dcmitype/StillImage" />
        <dc:title></dc:title>
      </cc:Work>
    </rdf:RDF>
  </metadata>
  <defs
     id="defs20" />
  <sodipodi:namedview
     pagecolor="#0e0e0e"
     bordercolor="#666666"
     borderopacity="1"
     objecttolerance="10"
     gridtolerance="10"
     guidetolerance="10"
     inkscape:pageopacity="0"
     inkscape:pageshadow="2"
     inkscape:window-width="1600"
     inkscape:window-height="837"
     id="namedview18"
     showgrid="false"
     inkscape:zoom="0.87198847"
     inkscape:cx="435.87314"
     inkscape:cy="163.11531"
     inkscape:window-x="-8"
     inkscape:window-y="-8"
     inkscape:window-maximized="1"
     inkscape:current-layer="layer1" />
  <path
     d="m 473.03,0 c -12.768,10.9 -12.195,30.984 -3.7159,46.531 1.4163,0.63406 2.7596,1.4027 4.0124,2.2911 0.77184,-2.61 1.9832,-5.0314 3.5476,-7.1792 -3.7186,-7.1889 -6.421,-23.109 9.3241,-38.791 L 473.0302,3e-4 Z m 22.949,35.389 c -9.6924,0 -17.756,6.8244 -19.693,15.918 2.7903,2.7583 4.8981,6.2061 6.0437,10.068 0.51302,-0.0323 1.0296,-0.0508 1.5507,-0.0508 3.6842,0 7.1791,0.82444 10.312,2.2963 4.3111,-5.7162 11.168,-9.4133 18.868,-9.4133 1.0246,0 2.0339,0.0659 3.0244,0.19303 -0.58207,-10.615 -9.3414,-19.011 -20.105,-19.011 z m -36.296,12.573 c -11.142,0 -20.137,8.9948 -20.137,20.137 0,2.8605 0.59364,5.5731 1.6648,8.0319 4.0694,-3.3224 9.2624,-5.3179 14.913,-5.3179 2.6501,0 5.204,0.43897 7.587,1.2468 3.4732,-5.1366 8.8556,-8.8803 15.12,-10.208 -2.6258,-8.0597 -10.191,-13.89 -19.149,-13.89 z m 53.377,9.7266 c -6.4173,0 -12.113,2.9923 -15.8,7.6544 6.474,4.2789 10.792,11.566 10.945,19.855 0.8933,-0.0989 1.8004,-0.1514 2.7196,-0.1514 6.4716,0 12.365,2.5164 16.758,6.6204 3.4181,-3.6077 5.5138,-8.47 5.5138,-13.842 0,-11.142 -8.9948,-20.137 -20.137,-20.137 z m -29.18,7.2217 c -11.478,0 -20.743,9.2659 -20.743,20.743 0,4.9114 1.6995,9.4053 4.544,12.956 1.1824,-0.18298 2.3933,-0.27823 3.6261,-0.27823 5.9897,0 11.473,2.239 15.64,5.9231 1.9968,-8.9394 8.8785,-16.055 17.687,-18.39 a 1.7936,1.7936 0 0 1 -0.0112,-0.21062 c 0,-11.478 -9.2659,-20.743 -20.743,-20.743 z m -27.756,9.3844 c -11.142,0 -20.137,8.9948 -20.137,20.137 0,8.7409 5.5547,16.153 13.311,18.947 2.5483,-6.5199 7.914,-11.639 14.592,-13.853 -2.7351,-3.9362 -4.3413,-8.7239 -4.3413,-13.871 0,-3.7608 0.85812,-7.325 2.3881,-10.507 -1.8391,-0.55369 -3.789,-0.85173 -5.8138,-0.85173 z m 54.8,14.374 c -11.589,0 -20.946,9.356 -20.946,20.946 0,3.4148 0.81555,6.6263 2.2597,9.4691 2.7227,-0.99335 5.6603,-1.5361 8.7224,-1.5361 8.3376,0 15.753,4.0197 20.413,10.223 6.2706,-3.616 10.497,-10.379 10.497,-18.156 0,-5.2522 -1.9217,-10.045 -5.1019,-13.717 a 1.7412,1.7412 0 0 1 -0.95908,-1.034 c -3.7928,-3.827 -9.0562,-6.1942 -14.885,-6.1942 z m -39.618,13.145 c -11.142,0 -20.137,8.9951 -20.137,20.137 0,11.1419 8.9948,20.137 20.137,20.137 1.4344,0 2.8306,-0.15169 4.1771,-0.43562 0.50039,-9.1249 5.8168,-16.987 13.445,-21.084 -1.6454,-3.2992 -2.572,-7.0241 -2.572,-10.954 0,-0.34018 0.008,-0.6783 0.0223,-1.0152 -3.6901,-4.1631 -9.0632,-6.7855 -15.073,-6.7855 z m 29.654,19.496 c -12.037,0 -21.755,9.7176 -21.755,21.755 0,12.0374 9.7176,21.755 21.755,21.755 12.0374,0 21.755,-9.7176 21.755,-21.755 0,-4.3051 -1.2436,-8.3134 -3.3913,-11.687 a 1.8111,1.8111 0 0 1 -0.28673,-0.43849 c -3.9007,-5.8125 -10.533,-9.6296 -18.077,-9.6296 z"
     id="path8"
     inkscape:connector-curvature="0"
     style="fill:#ffffff;fill-rule:evenodd" />
  <g
     transform="matrix(0.94410439,0,-0.20996097,1.0592049,0,0)"
     style="font-size:99.74500275px;line-height:125%;font-family:sans-serif;letter-spacing:0px;word-spacing:0px;fill:#000000"
     id="text10">
    <path
       d="m 70.207154,100.09439 0,26.39736 -8.182207,0 0,-69.840981 19.189224,0 q 11.201832,0 17.338487,5.454805 6.185362,5.454805 6.185362,15.390342 0,9.935538 -6.867212,16.267008 -6.818507,6.331466 -18.45867,6.331466 l -9.204984,0 z m 0,-36.040671 0,28.637725 8.571837,0 q 8.474429,0 12.906457,-3.847585 4.480733,-3.89629 4.480733,-10.958314 0,-13.831826 -16.364415,-13.831826 l -9.594612,0 z"
       style="font-family:'Yu Gothic UI';letter-spacing:4.73999977px;fill:#ffffff"
       id="path4174" />
    <path
       d="m 172.74401,126.49175 -9.74072,0 -11.68887,-19.57885 q -1.60722,-2.7274 -3.11703,-4.62684 -1.50981,-1.94815 -3.11703,-3.165739 -1.55852,-1.21759 -3.40925,-1.75333 -1.80204,-0.584443 -4.09111,-0.584443 l -6.7211,0 0,29.709202 -8.1822,0 0,-69.840981 20.84514,0 q 4.57814,0 8.42573,1.168887 3.89629,1.120183 6.7211,3.457957 2.87351,2.337773 4.48073,5.844433 1.60722,3.457957 1.60722,8.133504 0,3.652771 -1.12018,6.721099 -1.07148,3.019624 -3.11704,5.406101 -1.99684,2.386477 -4.87036,4.091104 -2.82481,1.655923 -6.38017,2.581291 l 0,0.194815 q 1.75333,0.779258 3.01962,1.802033 1.315,0.974073 2.48389,2.337774 1.16888,1.363701 2.28907,3.117033 1.16888,1.70462 2.58129,3.99369 l 13.10127,20.99126 z m -41.88511,-62.438031 0,25.325879 11.10443,0 q 3.06832,0 5.64962,-0.925368 2.62999,-0.925369 4.52943,-2.629996 1.89944,-1.75333 2.97092,-4.237214 1.07148,-2.532588 1.07148,-5.649619 0,-5.600916 -3.65277,-8.717947 -3.60407,-3.165735 -10.47128,-3.165735 l -11.20183,0 z"
       style="font-family:'Yu Gothic UI';letter-spacing:4.73999977px;fill:#ffffff"
       id="path4176" />
    <path
       d="m 214.20654,127.66064 q -14.85461,0 -23.81607,-9.78943 -8.91276,-9.78942 -8.91276,-25.471988 0,-16.85145 9.10757,-26.884395 9.10758,-10.032944 24.79014,-10.032944 14.46498,0 23.28033,9.740722 8.86406,9.740723 8.86406,25.471991 0,17.094964 -9.05887,27.030504 -9.05888,9.93554 -24.2544,9.93554 z m 0.58444,-64.775808 q -11.00702,0 -17.87423,7.938689 -6.86721,7.938689 -6.86721,20.845147 0,12.906462 6.6724,20.796442 6.7211,7.84128 17.4846,7.84128 11.49405,0 18.11774,-7.50035 6.62369,-7.50036 6.62369,-20.991261 0,-13.831827 -6.42888,-21.380887 -6.42887,-7.54906 -17.72811,-7.54906 z"
       style="font-family:'Yu Gothic UI';letter-spacing:4.73999977px;fill:#ffffff"
       id="path4178" />
    <path
       d="m 283.86846,101.45809 q 0,12.41943 -5.25999,19.33534 -5.25999,6.86721 -14.07535,6.86721 -4.0911,0 -6.7211,-1.16889 l 0,-8.0848 q 2.63,1.89944 6.81851,1.89944 11.05572,0 11.05572,-18.75089 l 0,-44.904731 8.18221,0 0,44.807321 z"
       style="font-family:'Yu Gothic UI';letter-spacing:4.73999977px;fill:#ffffff"
       id="path4180" />
    <path
       d="m 343.40002,126.49175 -37.01475,0 0,-69.840981 35.45623,0 0,7.40295 -27.27402,0 0,23.231624 25.22847,0 0,7.354246 -25.22847,0 0,24.449211 28.83254,0 0,7.40295 z"
       style="font-family:'Yu Gothic UI';letter-spacing:4.73999977px;fill:#ffffff"
       id="path4182" />
    <path
       d="m 409.11696,123.56954 q -7.74388,4.0911 -19.28663,4.0911 -14.90331,0 -23.86478,-9.59461 -8.96146,-9.59461 -8.96146,-25.179771 0,-16.754044 10.08165,-27.07921 10.08165,-10.325166 25.56939,-10.325166 9.93554,0 16.46183,2.873513 l 0,8.717947 q -7.50036,-4.188511 -16.55923,-4.188511 -12.0298,0 -19.53015,8.036096 -7.45165,8.036097 -7.45165,21.478294 0,12.760348 6.96461,20.358108 7.01332,7.54906 18.36126,7.54906 10.51999,0 18.21516,-4.67554 l 0,7.93869 z"
       style="font-family:'Yu Gothic UI';letter-spacing:4.73999977px;fill:#ffffff"
       id="path4184" />
    <path
       d="m 469.37908,64.053719 -20.1633,0 0,62.438031 -8.1822,0 0,-62.438031 -20.1146,0 0,-7.40295 48.4601,0 0,7.40295 z"
       style="font-family:'Yu Gothic UI';letter-spacing:4.73999977px;fill:#ffffff"
       id="path4186" />
  </g>
  <g
     transform="matrix(0.95875136,0,-0.24163539,1.0430233,0,0)"
     style="font-size:101.28774261px;line-height:125%;font-family:sans-serif;letter-spacing:0px;word-spacing:0px;fill:#000000"
     id="text14">
    <path
       d="m 644.42832,56.52987 -26.26161,70.9212 -9.14953,0 -25.71759,-70.9212 9.24844,0 19.63439,56.2325 q 0.93968,2.72013 1.43425,6.28103 l 0.19783,0 q 0.39565,-2.96742 1.63208,-6.37994 l 20.03004,-56.13359 8.9517,0 z"
       style="font-family:'Yu Gothic UI';letter-spacing:4.8132925px;fill:#ffffff"
       id="path4163" />
    <path
       d="m 667.73849,127.45107 -8.30876,0 0,-70.9212 8.30876,0 0,70.9212 z"
       style="font-family:'Yu Gothic UI';letter-spacing:4.8132925px;fill:#ffffff"
       id="path4165" />
    <path
       d="m 748.31977,127.45107 -10.18813,0 -36.49919,-56.52924 q -1.3848,-2.126647 -2.27502,-4.451122 l -0.29674,0 q 0.39565,2.275018 0.39565,9.743011 l 0,51.237351 -8.30876,0 0,-70.9212 10.78161,0 35.51006,55.63902 q 2.22556,3.46198 2.8685,4.74786 l 0.19783,0 q -0.49457,-3.06633 -0.49457,-10.43541 l 0,-49.95147 8.30876,0 0,70.9212 z"
       style="font-family:'Yu Gothic UI';letter-spacing:4.8132925px;fill:#ffffff"
       id="path4167" />
    <path
       d="m 817.8227,56.52987 -23.39311,44.70904 0,26.21216 -8.30876,0 0,-26.01433 -22.79964,-44.90687 9.44627,0 15.87567,32.048075 q 0.29674,0.593483 1.73099,4.352208 l 0.14837,0 q 0.49457,-1.681535 1.87936,-4.352208 l 16.61752,-32.048075 8.80333,0 z"
       style="font-family:'Yu Gothic UI';letter-spacing:4.8132925px;fill:#ffffff"
       id="path4169" />
    <path
       d="m 869.32331,127.45107 -36.79593,0 0,-70.9212 8.30876,0 0,63.40375 28.48717,0 0,7.51745 z"
       style="font-family:'Yu Gothic UI';letter-spacing:4.8132925px;fill:#ffffff"
       id="path4171" />
  </g>
  <g
     inkscape:groupmode="layer"
     id="layer1"
     inkscape:label="Layer 1"
     style="display:none">
    <g
       transform="translate(-2.7549667e-7,3.625474e-6)"
       id="g4200">
      <text
         sodipodi:linespacing="125%"
         id="text10-7"
         x="52.868668"
         y="126.49175"
         font-size="99.745px"
         xml:space="preserve"
         transform="matrix(0.94410439,0,-0.20996097,1.0592049,0,0)"
         line-height="125%"
         style="font-size:99.74500275px;line-height:125%;font-family:sans-serif;letter-spacing:0px;word-spacing:0px;fill:#000000"><tspan
           id="tspan12"
           x="52.868668"
           y="126.49175"
           dx="0"
           style="font-family:'Yu Gothic UI';letter-spacing:4.73999977px;fill:#ffffff">PROJECT</tspan></text>
      <text
         sodipodi:linespacing="125%"
         id="text14-0"
         x="582.40942"
         y="127.45108"
         font-size="101.29px"
         xml:space="preserve"
         transform="matrix(0.95875134,0,-0.24163538,1.0430233,0,0)"
         line-height="125%"
         style="font-size:101.28774261px;line-height:125%;font-family:sans-serif;letter-spacing:0px;word-spacing:0px;fill:#000000"><tspan
           id="tspan16"
           x="582.40942"
           y="127.45108"
           style="font-family:'Yu Gothic UI';letter-spacing:4.8132925px;fill:#ffffff">VINYL</tspan></text>
    </g>
  </g>
</svg>
