<svg width="1301.3mm" height="828.36mm" version="1.1" viewBox="0 0 1301.3 828.36" xmlns="http://www.w3.org/2000/svg" xmlns:xlink="http://www.w3.org/1999/xlink"><defs><clipPath id="e"><path d="m-209.08-320.52c134.73 37.781 349.54 223.01 302.28 336.32 0 0-55.107-21.881-141.01-82.661-85.902-60.78-214.35-215.57-214.35-215.57z" fill="none" stroke="#000" stroke-width=".52917"/></clipPath><linearGradient id="b" x1="-91.964" x2="-85.57" y1="109.2" y2="221.84" gradientUnits="userSpaceOnUse"><stop stop-color="#e4bf2c" offset="0"/><stop stop-color="#ffff61" offset="1"/></linearGradient><clipPath id="d"><path d="m-12.893 168.93c-48.809 21.718-108.34 29.917-162.74-0.28652-45.625-78.475 58.07-188.89 115.47-184.52 80.452 6.1242 86.449 116.25 47.276 184.81z" fill="#fff" fill-rule="evenodd"/></clipPath><linearGradient id="a" x1="-129.67" x2="-112.03" y1="182.05" y2="234.47" gradientTransform="matrix(1.0335 0 0 1.057 45.353 -.92799)" gradientUnits="userSpaceOnUse"><stop stop-color="#e4bf2c" offset="0"/><stop stop-color="#ffff61" offset="1"/></linearGradient><clipPath id="c"><path d="m-260.26 137.13c36.291-41.417 55.475-166.31 4.7318-171.69-14.559-1.5425-54.143 13.098-78.591 46.888-29.511 40.787-36.445 122.97-12.935 138.25 31.467 8.1942 63.673 8.4017 86.794-13.45z" fill="#fff"/></clipPath></defs><g transform="translate(462.55 401.06)"><g><path d="m232.58-67.68s105.76-73.341 117.51-53.081c11.751 20.26-85.902 128.04-85.902 128.04" fill="#bbc4cb" fill-rule="evenodd" stroke="#7d80a0" stroke-width="5.8208"/><path d="m192.25-111.29c5.1343-13.691 45.024-69.604 28.938-77.647-20.629-10.315-130.98 41.932-160.45 261.31" fill="#bbc4cb" fill-rule="evenodd" stroke="#7d80a0" stroke-width="5.8208"/><g><path d="m156.81 54.285c38.691-113.96 145.29-170.63 168.49-203.11 6.1101-8.5529 10.372-21 1.2854-25.42-47.512-23.111-143.24 68.681-143.24 68.681l-116.09 160.66" fill="#bbc4cb"/><path d="m218.37-139.18c-10.263 7.7244-19.105 16.195-25.605 23.023-3.0031 3.1547-5.3252 5.7683-6.9685 7.6762-0.80171 0.93083-1.3986 1.6436-1.8192 2.1528-0.2072 0.2508-0.35892 0.43681-0.466 0.56893-0.0529 0.0652-0.0914 0.11307-0.11864 0.14698-0.0273 0.034-0.0411 0.0513-0.0411 0.0513s0.0179-0.013 0.0531-0.0387c-0.0197 0.0144 0.17231-0.12552 0.15261-0.11116-0.0679 0.0495 0.66202-0.48167 0.59408-0.4322-0.20895 0.15191 2.485-1.8039 2.2761-1.652 2.0018-1.4511 4.8842-3.5355 8.3599-6.0482 6.0121-4.3463 18.969-13.704 27.503-20.127 15.937-11.995 35.242-24.742 53.832-32.693 9.2953-3.9755 18.405-6.7443 26.751-7.689 8.3456-0.94465 15.87-0.0817 22.29 3.0413 1.6403 0.7979 2.4023 1.7131 2.8987 2.9318 0.49634 1.2188 0.6452 2.8631 0.3579 4.8242-0.5746 3.9222-2.94 8.8778-5.7686 12.837-4.3006 6.02-12.148 13.433-22.194 22.081-10.046 8.6481-22.292 18.592-35.484 30.061-26.384 22.938-56.572 51.987-80.747 89.327-9.7632 15.077-16.571 30.086-21.16 42.811-4.4219 12.26-6.2559 20.728-6.2559 20.728s3.3942-7.9732 9.2466-19.432c6.3585-12.45 13.783-25.331 23.643-40.563 23.667-36.555 53.367-65.186 79.551-87.95 13.092-11.382 25.302-21.296 35.46-30.04s18.264-16.259 23.246-23.232c3.2814-4.5934 6.1022-10.138 6.9144-15.682 0.40614-2.7723 0.29864-5.603-0.7706-8.2285-1.0692-2.6255-3.1821-4.9237-6.0851-6.3358-7.7975-3.7928-16.65-4.701-25.875-3.6568-9.2254 1.0442-18.881 4.0242-28.581 8.1729-19.401 8.2973-39.008 21.3-55.189 33.478z" fill="#7d80a0"/></g></g><g fill-rule="evenodd" stroke-width="5.8208"><path d="m-248.22-278.37c71.389-8.6174 55.444-107.67 98.088-118.01 40.992-9.9388 104 22.446 184.35 90.745 67.865 57.687 139 128.15 145.72 201.5 6.7735 73.936-94.285 111.31-124.36 97.724" fill="#3c4bbc" stroke="#242d71"/><path d="m-248.22-278.37c71.389-8.6174 55.444-107.67 98.088-118.01 40.992-9.9388 104 22.446 184.35 90.745 67.865 57.687 139 128.15 145.72 201.5 6.7735 73.936-94.285 111.31-124.36 97.724" clip-path="url(#e)" fill="#282828" stroke="#000"/><path d="m-164.51-201.4c5.8958-24.369-4.014-55.915-1.6426-79.198 1.4421-14.159 9.9794-26.923 22.002-28.366 4.7254-0.56742 26.993 2.7345 20.363 39.693 41.55-11.232 51.294 2.5847 54.964 8.017 11.309 16.74-0.48494 48.097-95.687 59.854z" fill="#9e9e9e" stroke="#5f5f5f"/><path d="m-31.755-158.95c-30.922-33.263-242.1-163.45-283.08-145.33-30.467 13.47 78.692 135.35 111.16 135.35" fill="#282828" stroke="#000"/></g><path d="m320.1 103.28c20.823-43.308 82.882-130.85 151.04-125.83-13.661 7.5151-24.519 15.272-33.873 26.724 42.988-16.533 101.96-24.508 153.53 13.759-25.77 2.8904-43.769 4.4318-70.721 12.034 59.605-2.7169 115.78 20.323 138.34 84.523-13.915-10.04-32.575-22.268-48.279-25.447 46.652 52.804 34.829 87.754 88.497 106.9 38.949 13.892 72.096 0.66477 116.34-44.194-3.855 8.2596-14.475 26.102-22.556 35.543 15.567-8.5532 31.879-21.18 42.898-37.082 9.2029 88.547-117.47 160.95-225.84 142.01-163.98-28.66-257.43-104.94-297.76-171.71" fill="#fafaaf" fill-rule="evenodd" stroke="#dfda66" stroke-miterlimit="9" stroke-width="5.8208"/><path d="m-137.41 297.08c-22.145 28.959-119.13 44.051-177.87 54.449-100.03 17.707-132 20.751-142.01 5.0652-15.716-24.625 48.559-124.29 229.43-109.38" fill="#bbc4cb" fill-rule="evenodd" stroke="#7d80a0" stroke-width="5.8208"/><g><path d="m392.25 204.74c-4.9722-8.7014 2.3404-22.399 17.764-20.056 8.4089 1.2771 31.973 23.101 50.657 29.673 29.418 10.348 54.039 9.4304 60.513 35.94 14.924 61.112-196.07 59.88-205.43-20.343" fill="#bbc4cb" fill-rule="evenodd" stroke="#7d80a0" stroke-width="5.8208"/><g><path transform="translate(6.8344e-7 7.0057e-6)" d="m69.911 31.11c80.746-16.036 181.82-40.043 251.33-6.1092 50.826 24.813 77.515 95.785 77.595 187.19l-44.691 41.859-284.45-115.89" fill="#bbc4cb"/><path d="m119.79 17.94c-12.619 2.4116-25.167 5.7769-34.422 8.45-9.2998 2.6862-15.454 4.7194-15.454 4.7194s6.4644-0.47625 16.082-1.6071c9.6778-1.1379 22.317-2.9043 34.986-5.3252 34.655-6.6227 70.812-12.388 105.09-13.13 34.277-0.74255 66.624 3.5493 93.78 16.806 19.63 9.5832 35.639 26.337 47.847 48.941 12.208 22.604 20.559 51.032 24.771 83.617 3.3254 25.714 6.3701 51.778 6.3701 51.778s3.3361-26.205-0.0725-52.592c-4.2881-33.177-12.793-62.326-25.482-85.821s-29.617-41.363-50.648-51.63c-28.452-13.89-61.813-18.204-96.703-17.449-34.89 0.75584-71.357 6.5938-106.14 13.242z" fill="#7d80a0"/></g></g><g><g><path d="m229.75 143.02c42.989 10.958 117.88-12.033 111.23-36.468-5.4067-19.862-30.265-9.4358-52.068-8.7118l-121.01-1.408" fill="#bbc4cb"/><path d="m323.29 91.303c-8.839-0.1562-17.925 2.4-23.858 3.9648-6.2448 1.6468-10.523 2.576-10.523 2.576s4.3378 0.66126 10.949 0.57632c6.5753-0.08448 15.151-0.97938 23.295-0.76863 3.9818 0.08579 7.2234 0.77434 9.5868 2.2056 2.3634 1.4313 4.0903 3.5527 5.1736 7.5324 0.58942 2.1653 0.35645 4.18-0.71957 6.4466-1.076 2.2666-3.0755 4.7127-5.9231 7.1245-5.6952 4.8236-14.692 9.4423-25.289 13.092-13.158 4.5336-26.061 7.3401-38.265 8.9422-11.346 1.4722-19.9 1.7046-27.167 1.2705-6.7766-0.40484-10.801-1.2415-10.801-1.2415s3.831 1.4741 10.606 2.7809c7.1272 1.3747 16.167 2.2308 27.756 1.6881 12.542-0.56973 26.257-2.7269 39.938-7.4362 11.094-3.8206 20.668-8.6116 27.325-14.25 3.3287-2.8192 5.9511-5.8672 7.5556-9.2469 1.6044-3.3797 2.1104-7.1633 1.1102-10.838-1.4171-5.2059-4.2707-9.031-8.0113-11.296s-8.1265-3.0231-12.739-3.1225z" fill="#7d80a0"/></g><g><path transform="translate(2.0017e-6 9.9836e-6)" d="m286.48 105.75c83.527-45.59 125.22-87.617 117.05-104.95-4.7954-10.168-22.919-15.241-78.626 12.745l-179.34 82.891" fill="#bbc4cb"/><path d="m339.78 2.669c-8.3847 3.7256-14.887 10.876-14.887 10.876s9.5847-0.99313 17.68-4.5892c21.299-9.4625 35.489-12.801 44.317-12.8 4.4138 4.025e-4 7.4426 0.80781 9.4967 1.9202 2.0541 1.1124 3.2261 2.5027 4.0224 4.1912 0.53323 1.1307 0.77967 2.4655 0.64566 4.184-0.134 1.7185-0.67498 3.7985-1.7054 6.1705-2.0608 4.7441-6.0698 10.607-11.996 17.17-11.852 13.126-31.303 29.095-57.725 46.315-21.747 14.174-43.154 29.639-43.154 29.639s24.726-9.4195 46.91-23.876c26.755-17.436 46.58-33.63 59.075-47.468 6.2474-6.9191 10.68-13.239 13.2-19.04 1.26-2.9005 2.0442-5.6836 2.2542-8.3766 0.21-2.693-0.18078-5.3179-1.282-7.6531-1.3505-2.8636-3.6608-5.5148-6.9686-7.3061s-7.5205-2.7498-12.772-2.7503c-10.503-9.57e-4 -25.337 3.7191-47.11 13.392z" fill="#7d80a0"/></g><g><path transform="translate(8.509e-7 7.3235e-6)" d="m300.56 38.559c46.679-40.592 120.72-83.171 144.14-110.52 20.066-23.43 5.3932-35.909-6.5657-38.339-24.283-4.9337-68.316-13.786-201.19 107.03l-113.18 110.02" fill="#bbc4cb"/><path d="m276.01-41.872c-21.283 17.475-39.057 38.6-39.057 38.6s22.578-15.828 43.59-33.078c50.366-41.351 84.62-59.983 108.6-67.739 11.992-3.8782 21.407-5.0579 29.128-5.0394 7.7217 0.0185 13.761 1.237 19.152 2.3322a5373 5373 0 0 0-8e-5 -1e-5 19.706 19.706 0 0 1 8e-5 2e-5c2.5448 0.51704 5.295 1.5996 7.5868 3.168 2.2918 1.5684 4.1073 3.578 5.1209 6.0033 1.0136 2.4252 1.325 5.3296 0.25043 9.1718-1.0746 3.8422-3.6195 8.5969-8.3942 14.172-6.8291 7.9742-18.705 17.789-33.149 28.529s-31.471 22.47-48.783 34.661c-16.469 11.593-30.454 22.708-41.949 32.902-10.905 9.6695-17.55 16.749-17.55 16.749s7.8296-5.7413 19.751-13.937c11.927-8.2004 28.068-18.746 43.862-29.873 17.272-12.164 34.331-23.912 48.933-34.77s26.727-20.758 34.312-29.615c5.2582-6.1399 8.4039-11.731 9.848-16.895s1.1023-9.9237-0.5389-13.851c-1.6412-3.927-4.482-6.957-7.6777-9.144-3.1957-2.187-6.7642-3.5754-10.199-4.2733-5.394-1.096-12.086-2.4549-20.557-2.4752-8.4708-0.0203-18.709 1.3001-31.344 5.386-25.269 8.1718-60.161 27.325-110.94 69.015z" fill="#7d80a0"/></g><path d="m138.54 98.944c4.3469-125.02 164.79-225.38 180.07-204.79 14.04 18.916-64.933 101.36-75.641 103.15" fill="#bbc4cb" fill-rule="evenodd" stroke="#7d80a0" stroke-width="5.8208"/><path d="m202.45 15.982c-10.465 10.772-17.714 22.742-22.561 32.829-4.7105 9.8021-6.7591 16.715-6.7591 16.715s3.4071-6.3572 9.2944-15.281c6.1965-9.392 14.04-19.773 24.199-30.206 9.2449-9.5053 18.247-15.774 25.128-18.919 3.4405-1.5726 6.36-2.3418 8.3141-2.4465 0.97707-0.052344 1.696 0.061424 2.1153 0.20811 0.41935 0.14668 0.52959 0.26801 0.62092 0.40056 0.24512 0.35575 0.46405 1.0631 0.2821 2.4683-0.18194 1.4052-0.78594 3.3553-1.7988 5.632-2.0258 4.5533-5.6315 10.413-10.075 16.909-8.8862 12.994-21.102 28.609-30.986 43.195l-10.703 15.795 14.925-11.886c12.084-9.6226 30.217-18.019 45.753-21.814 7.7681-1.8977 14.904-2.6297 20.116-1.9831 2.6058 0.32329 4.7062 0.98815 6.1888 1.8761 1.4825 0.88798 2.3702 1.9171 2.8928 3.3463a7.2321 7.2321 0 0 1 0 1e-6 2.9796 2.9796 0 0 1 0 1e-6c0.29668 0.81131 0.41268 2.2224 0.0752 4.1578-0.33748 1.9354-1.1015 4.3525-2.2759 7.1044-2.3487 5.5038-6.3179 12.345-11.491 19.929-11.434 16.77-22.988 34.09-22.988 34.09s15.967-13.473 27.796-30.81c5.3072-7.7811 9.4455-14.854 12.036-20.924 1.2951-3.0349 2.2083-5.8194 2.6564-8.3891 0.44809-2.5697 0.45797-4.9672-0.3427-7.1568-0.9955-2.7224-2.947-4.8903-5.3687-6.3408s-5.2906-2.2655-8.4631-2.6591c-6.345-0.78718-14.002 0.09884-22.214 2.1051-11.412 2.7878-23.863 7.7688-34.759 14.02 7.5621-10.447 15.544-20.994 21.956-30.37 4.5305-6.6245 8.2822-12.646 10.588-17.829 1.153-2.5915 1.9584-4.9733 2.2532-7.2507 0.29487-2.2774 0.058-4.6033-1.2616-6.5183-0.85344-1.2386-2.1315-2.1164-3.4923-2.5923-1.3608-0.47596-2.8138-0.60841-4.3485-0.52619-3.0696 0.16444-6.5337 1.1875-10.423 2.965-7.7777 3.5551-17.217 10.218-26.881 20.155z" fill="#7d80a0"/><path d="m256.08 108.88c-3.4847 1.0471-6.4828 2.9616-8.6249 4.8325-2.0883 1.824-3.1229 3.3828-3.1229 3.3828s1.84-0.33823 4.3897-0.76579c2.3329-0.3912 6.0891-0.96658 9.053-1.8809 2.1945-0.66795 4.4487-1.238 6.6416-1.6764 3.7302-0.72395 7.2795-1.2964 10.701-1.1098 1.2718 0.0874 2.3845 0.19238 3.2669 0.55365 0.58653 0.29356 1.0874 0.50201 1.141 0.72848 0.26703 0.16176 0.17618 0.84447 0.0623 1.6305-0.32152 1.4207-1.2376 2.882-2.181 4.2978-3.2397 4.7559-7.5974 8.9846-10.157 11.431-2.7966 2.6729-4.4808 4.2151-4.4808 4.2151s1.9935-1.1072 5.2703-3.2111c3.0574-1.9631 8.0752-5.3571 12.351-10.069 1.2598-1.3623 2.5915-3.0659 3.4609-5.2601 0.58626-1.3402 0.77406-3.115 0.0764-5.0565-0.81487-1.6642-2.0907-2.8108-3.4496-3.3872h-1e-5c-1.657-0.77425-3.3413-1.1396-4.9054-1.2902-4.1987-0.45327-8.3395 7e-3 -12.297 0.81979-2.3914 0.47809-4.8218 1.0932-7.1954 1.8157z" fill="#7d80a0"/></g><g stroke-width="5.8208"><path d="m248.79 140.59c-33.693-63.142-172.48-74.567-162.19-29.034 13.072 57.84 30.483 287.53 163 301.33 114.06 11.88 173.57-69.499 171.8-97.045-1.6751-26.195-36.548-40.936-40.115-50.447" fill="#83403f" fill-rule="evenodd" stroke="#4e2726"/><path d="m96.271 187.55s61.772 177.59 218.19 123.94c86.45-29.652 73.958-71.365 69.19-83.259-5.4272-13.54-17.268-27.043-32.33-37.966-15.611-11.321-21.959-22.301-47.609-51.715-67.057-1.8027-123.75 16.085-146.57 28.189" fill="#83403f" fill-rule="evenodd" stroke="#4e2726"/><ellipse cx="313.88" cy="300.72" rx="24.904" ry="24.474" color="#000000" color-rendering="auto" fill="#ffcc51" image-rendering="auto" shape-rendering="auto" solid-color="#000000" stroke="#f48f15" stroke-linecap="round" stroke-linejoin="round" style="isolation:auto;mix-blend-mode:normal;paint-order:normal"/></g><path d="m102.3 81.438c31.42 101.5-77.532 225.36-195.13 239.56-116.68 14.092-227.62-46.767-295.36-114.1-26.71-26.548-32.045-61.399-3.2135-99.909 0.98856-139.81 130.44-212.9 254.21-219.35 84.662-4.4136 177.27 9.2838 208.07 104.97" fill="#bbc4cb" fill-rule="evenodd" stroke="#7d80a0" stroke-width="5.8208"/><g><g clip-path="url(#d)"><path d="m-12.893 168.93c-48.809 21.718-108.34 29.917-162.74-0.28652-45.625-78.475 58.07-188.89 115.47-184.52 80.452 6.1242 86.449 116.25 47.276 184.81z" fill="#fff" fill-rule="evenodd"/><g shape-rendering="auto"><ellipse transform="matrix(.95045 .31089 -.26537 .96415 0 0)" cx="-104.21" cy="173.41" rx="71.778" ry="82.942" color="#000000" color-rendering="auto" fill="url(#b)" image-rendering="auto" solid-color="#000000" style="isolation:auto;mix-blend-mode:normal;paint-order:normal"/><ellipse transform="matrix(.94782 .3188 -.25856 .96599 0 0)" cx="-104.65" cy="176.62" rx="44.311" ry="52.405" color="#000000" color-rendering="auto" image-rendering="auto" solid-color="#000000" style="isolation:auto;mix-blend-mode:normal;paint-order:normal"/><ellipse transform="matrix(.92966 .36841 -.3939 .91915 0 0)" cx="-70.491" cy="123.46" rx="33.125" ry="36.068" color="#000000" color-rendering="auto" fill="#fff" image-rendering="auto" solid-color="#000000" style="isolation:auto;mix-blend-mode:normal;paint-order:normal"/><ellipse transform="matrix(.62134 .78354 -.82166 .56998 0 0)" cx="60.252" cy="173.02" rx="7.8676" ry="8.1156" color="#000000" color-rendering="auto" fill="#fff" image-rendering="auto" solid-color="#000000" style="isolation:auto;mix-blend-mode:normal;paint-order:normal"/></g></g><path d="m-180.25 76.126c-7.2673 16.383-10.331 33.25-9.5357 48.892 0.72759 13.959 4.5252 25.307 7.9667 33.009 3.4352 7.6877 6.328 11.759 6.328 11.759s-2.1252-4.5293-4.3815-12.468c-2.2737-7.9998-4.4434-19.214-3.8944-32.34 0.59559-14.762 4.4614-30.004 11.26-45.428 5.3296-12.052 12.776-24.129 22.305-35.991 11.952-14.88 27.249-29.715 43.605-40.25 16.356-10.535 33.652-16.673 49.711-14.978 11.277 1.1903 20.715 5.2366 28.739 11.224 8.0248 5.9876 14.616 13.956 19.869 22.941 10.506 17.971 15.556 40.009 16.314 57.1 0.55565 12.533-2.5704 28.855-7.2714 44.438-3.3653 11.154-5.67 18.834-8.8265 28.396-2.3317 7.0275-3.6705 10.968-5.447 15.43-1.4951 3.7556-2.5337 5.9361-2.5337 5.9361s1.6646-1.7448 4.1254-5.0436c2.6373-3.5354 5.4956-7.9466 8.8789-14.133 4.4214-8.0705 8.7447-17.65 11.909-28.14 4.8665-16.131 8.2541-33.044 7.6239-47.258-0.81596-18.404-6.0457-41.47-17.463-60.999-5.7085-9.7644-12.989-18.645-22.115-25.454-9.1258-6.8091-20.117-11.507-32.914-12.858-18.775-1.9818-37.815 5.0925-55.184 16.28-17.369 11.187-33.186 26.584-45.621 42.066-9.9364 12.37-17.784 25.064-23.447 37.869z"/></g><g><g transform="translate(-4.7255e-6 -6.2838e-6)"><path d="m-350.13 40.655c0.31929 0.1828 2.0665-2.1722 2.0665-2.1722s1.126-2.7073 0.82551-2.8793c-1.3934-0.79775-2.7464-1.5987-4.0552-2.4097-6.1334-3.8482-10.151-6.2238-14.542-9.7809-3.7231-3.0157-5.9446-5.5727-5.9446-5.5727s0.923 3.2627 3.8014 7.5204c3.0165 4.462 7.5841 9.0852 13.619 12.781 1.3768 0.85316 2.7877 1.6882 4.2292 2.5134z"/><path transform="translate(16.594 -14.832)" d="m-350.13 40.655c0.31929 0.1828 2.0665-2.1722 2.0665-2.1722s1.126-2.7073 0.82551-2.8793c-1.3934-0.79775-2.7464-1.5987-4.0552-2.4097-6.1334-3.8482-10.151-6.2238-14.542-9.7809-3.7231-3.0157-5.9446-5.5727-5.9446-5.5727s0.923 3.2627 3.8014 7.5204c3.0165 4.462 7.5841 9.0852 13.619 12.781 1.3768 0.85316 2.7877 1.6882 4.2292 2.5134z"/></g><g clip-path="url(#c)"><path transform="translate(-9.387e-6 3.679e-6)" d="m-260.26 137.13c36.291-41.417 55.475-166.31 4.7318-171.69-14.559-1.5425-54.143 13.098-78.591 46.888-29.511 40.787-36.445 122.97-12.935 138.25 31.467 8.1942 63.673 8.4017 86.794-13.45z" fill="#fff"/><g transform="matrix(.87969 -.081375 .059734 .94452 -137.15 -106.92)" shape-rendering="auto"><ellipse transform="matrix(.87536 .48347 -.46887 .88327 0 0)" cx="-62.343" cy="182.36" rx="74.181" ry="87.668" color="#000000" color-rendering="auto" fill="url(#a)" image-rendering="auto" solid-color="#000000" style="isolation:auto;mix-blend-mode:normal;paint-order:normal"/><ellipse transform="matrix(.95273 .30381 -.27202 .96229 0 0)" cx="-97.889" cy="171.15" rx="47.391" ry="52.54" color="#000000" color-rendering="auto" image-rendering="auto" solid-color="#000000" style="isolation:auto;mix-blend-mode:normal;paint-order:normal"/><ellipse transform="matrix(.58126 .81372 -.89171 .45262 0 0)" cx="44.722" cy="251.8" rx="24.935" ry="32.511" color="#000000" color-rendering="auto" fill="#fff" image-rendering="auto" solid-color="#000000" style="isolation:auto;mix-blend-mode:normal;paint-order:normal"/><ellipse transform="matrix(.55869 .82938 -.77292 .63451 0 0)" cx="35.404" cy="243.75" rx="6.3802" ry="6.4371" color="#000000" color-rendering="auto" fill="#fff" image-rendering="auto" solid-color="#000000" style="isolation:auto;mix-blend-mode:normal;paint-order:normal"/></g></g><path d="m-239.09 90.033c-4.5488 13.561-7.9701 23.297-12.899 33.13-4.3324 8.6444-8.2633 13.971-8.2633 13.971s5.0619-4.2706 10.874-12.391c6.1791-8.6333 11.733-19.547 16.095-32.779 8.862-26.65 13.467-57.319 11.069-82.258-1.1988-12.469-4.1327-23.54-9.4425-31.99-5.3098-8.4502-13.256-14.225-23.542-15.315-4.2886-0.45435-9.7365 0.26668-16.116 2.0158s-13.639 4.5674-21.207 8.5076c-15.135 7.8805-31.509 20.254-44.07 37.614-10.461 14.457-18.008 33.62-22.572 53.264-4.5635 19.644-6.1309 39.752-4.3194 56.206 0.78831 7.3384 2.7478 13.994 5.747 19.586 2.2154 4.21 4.765 7.0132 7.017 8.776 2.1589 1.69 3.671 2.2124 3.671 2.2124s-1.2428-1.019-2.7279-3.1189c-1.6232-2.2953-2.984-5.1495-4.312-9.4012-1.7567-5.7912-2.5019-11.55-3.3118-18.724-1.7091-15.525-0.22637-35.109 4.1974-54.152s11.801-37.562 21.569-51.061c11.887-16.43 27.53-28.272 41.938-35.773 7.2041-3.7509 14.097-6.4156 19.999-8.0338 5.9016-1.6182 10.861-2.1489 13.852-1.832 8.4339 0.89351 14.448 5.2344 19.004 12.485 4.556 7.2506 7.3929 17.466 8.5325 29.319 2.2792 23.707-2.1685 53.832-10.784 79.741z"/></g><path d="m-313.18-183.7c45.043-58.273 161.4 16.411 264.4 59.562-8.1407-21.135 0.12242-98.85 32.91-112.11-13.504 72.285 32.27 139.3 71.201 189.84l-249.61 7.583" fill="#fafaaf" fill-rule="evenodd" stroke="#dfda66" stroke-width="5.8208"/><g transform="matrix(4.1817 0 0 4.1817 -464.88 -405.02)"><path transform="translate(2.6997e-8 4e-6)" d="m71.553 84.107c-16.902 22.853-46.819-1.5271-64.036 28.302-3.8821-35.818 5.3269-52.6 32.029-58.176" fill="#fafaaf"/><path d="m70.937 85.546c-18.957 21.483-47.641-2.6919-62.597 27.069-6.0139-34.655 4.3676-53.422 32.509-58.107" fill="none" stroke="#dfda66" stroke-width="1.392"/></g><g transform="matrix(4.1817 0 0 4.1817 -464.88 -405.02)"><path d="m120.44 82.177c-12.529 26.637-36.959 9.3603-57.195 26.31-1.7346-12.404 5.721-27.017 19.446-30.232" fill="#fafaaf"/><path d="m118.09 86.242c1.2514-2.4946 1.3803-5.2757 1.3803-5.2757s-1.4646 2.3427-2.6243 4.6512c-5.2277 10.414-13.881 11.939-23.85 12.909-9.5633 0.93028-20.247 1.2401-29.393 8.4558 0.18024-8.1669 3.0962-16.795 8.9034-22.401 2.2403-2.1634 4.5276-3.7072 6.6699-4.8134 2.0268-1.0466 3.5137-1.512 3.5137-1.512s-1.5537 0.11704-3.7847 0.87138c-2.3086 0.78061-5.0001 2.1697-7.3656 4.4526-6.5205 6.2947-9.4946 15.98-9.3312 24.896a37.856 37.856 0 0 0 0.05775 1.5084 31.213 31.213 0 0 1 1.0941-0.99533c8.9918-7.7984 19.731-8.101 29.77-9.0775 10.039-0.97655 19.475-2.7457 24.959-13.67z" fill="#dfda66"/></g><g transform="matrix(4.1817 0 0 4.1817 -464.88 -405.02)"><path transform="translate(2.3213e-7 3.8456e-6)" d="m105.38 70c-20.868-23.759-53.467-40.5-86.244-13.268 8.6545-1.9659 20.113-2.3991 25.645-2.2878" fill="#fafaaf"/><path d="m92.888 59.172c6.8639 5.4791 13.309 11.617 13.309 11.617s-5.3106-7.1737-12.361-12.804c-10.64-8.4944-22.728-14.386-35.496-15.408-12.768-1.0216-26.189 2.8614-39.354 13.765a78.692 78.692 0 0 0-2.087 1.7909 228.61 228.61 0 0 1 2.6938-0.45679c4.2768-0.69897 8.0226-1.1863 11.319-1.5215 7.5342-0.76577 15.124-1.4188 15.124-1.4188s-7.605-0.8725-15.277-0.09198c-2.5763 0.26197-5.4209 0.61562-8.5713 1.0883 12.173-9.3272 24.364-12.575 36.032-11.641 12.381 0.99059 24.201 6.7231 34.67 15.081z" fill="#dfda66"/></g><g><path d="m101.5 97.034s9.265 21.761-2.5439 36.245c-15.815 19.398-118.43 5.2724-155.11 109.5 18.44-20.353 42.47-37.119 73.984-39.382-66.71 38.074-71.787 134.59-38.089 172.5-6.7724-63.163 76.045-84.854 121.11-128.76 30.258-43.091 41.163-132.18 34.096-174.78" fill="#fafaaf" fill-rule="evenodd" stroke="#dfda66" stroke-miterlimit="9" stroke-width="5.8208"/><path d="m31.2 377.63c-63.03 39.152-124.32 59.981-140.39 37.507-24.248-33.899 62.912-93.022 101.49-109.23" fill="#bbc4cb" fill-rule="evenodd" stroke="#7d80a0" stroke-width="5.8208"/><g><path transform="matrix(4.1817 0 0 4.1817 -464.88 -405.02)" d="m135.81 152.47c-1.9812 18.47 5.3314 31.846 20.259 45.59-16.384 0.90344-36.163-3.3048-36.826-22.092-0.78212 3.7258-1.2438 7.4118 2.739 15.178-10.901-6.5061-15.02-20.212-13.693-30.496" fill="#fafaaf"/><path transform="matrix(4.1817 0 0 4.1817 -464.88 -405.02)" d="m136.41 162.91c-0.51583-5.1348-0.60563-10.445-0.60563-10.445s-1.3204 5.1759-0.77941 10.584c1.3096 13.063 8.0731 23.711 19.352 34.384-7.6634 0.25192-15.883-0.676-22.328-3.6709-6.9106-3.2109-11.792-8.6717-12.115-17.823a26.841 26.841 0 0 1 1.0662-8.493 56.765 56.765 0 0 0-2.4429 8.3746c-0.70851 3.3752-1.1379 6.9507 1.6936 13.329-5.991-4.4692-9.5272-11.36-10.877-18.246-0.52684-2.693-0.82987-4.876-0.97972-6.9997-0.1368-1.9387-0.10966-3.259-0.10966-3.259s-1.3388 5.1203-0.2766 10.526c1.5602 7.9578 5.9342 15.984 13.613 20.567a25.795 25.795 0 0 0 2.0667 1.1093 56.779 56.779 0 0 1-1.0907-2.0245c-1.9793-3.8592-2.8406-6.6274-3.109-8.8956 1.8804 6.2645 6.3549 10.486 11.975 13.097 7.2408 3.3642 16.373 4.1816 24.64 3.7258a77.952 77.952 0 0 0 1.6423-0.10797 126.55 126.55 0 0 1-1.2092-1.099c-11.876-10.935-18.81-21.518-20.125-34.633z" fill="#dfda66"/></g><g><path transform="matrix(4.1817 0 0 4.1817 -464.88 -405.02)" d="m145.22 125.84c-1.4614 9.1385-3.7038 15.84-3.8884 23.047-0.22891 8.9348 2.0982 17.028 8.4714 22.943-10.826-2.4382-17.459-8.8803-17.612-16.435" fill="#fafaaf"/><path transform="matrix(4.1817 0 0 4.1817 -464.88 -405.02)" d="m144.96 131.19c0.52565-2.6217 0.26542-5.351 0.26542-5.351s-1.1138 2.501-1.6302 5.0774c-1.3232 6.6004-2.8035 12.079-2.9539 17.952-0.20989 8.1922 1.7153 15.785 6.916 21.653-2.2348-0.66966-4.247-1.5239-6.0112-2.5269-3.7093-2.1347-6.3923-4.934-7.8766-7.7618-1.4083-2.683-1.4734-4.8383-1.4734-4.8383s-0.3054 2.1412 0.85007 5.1206c1.2018 3.099 3.8219 6.4467 7.812 8.6895 2.5108 1.4275 5.4648 2.5529 8.7975 3.3034a39 39 0 0 0 2.6476 0.50084 25.501 25.501 0 0 1-2.0212-1.69c-6.2031-5.7564-8.4746-13.611-8.2491-22.415 0.14499-5.6594 1.5941-11.064 2.9272-17.714z" fill="#dfda66"/></g><g><path transform="matrix(4.1817 0 0 4.1817 -464.88 -405.02)" d="m148.75 96.235c-0.71534 18.546-5.5022 30.279 3.219 42.487-5.1975-1.0014-8.8776-5.7296-11.306-9.6386" fill="#fafaaf"/><path transform="matrix(4.1817 0 0 4.1817 -464.88 -405.02)" d="m148.66 106.67c0.53095-5.2111 0.0847-10.439 0.0847-10.439s-0.94613 5.1549-1.4696 10.298c-1.2401 12.178-2.8285 21.562 3.0539 30.996-0.21246-0.0822-0.42216-0.17109-0.62917-0.26621-2.7479-1.238-4.9109-3.3265-6.5207-5.1229-1.5858-1.7696-2.5214-3.0562-2.5214-3.0562s0.62487 1.4616 1.9648 3.4854c1.3495 2.0383 3.4324 4.5259 6.4961 5.9586 0.8537 0.39228 1.7587 0.69414 2.7134 0.8781a11.328 11.328 0 0 0 1.6654 0.19451 30.993 30.993 0 0 1-0.96737-1.2825c-6.8229-9.5507-5.1853-18.729-3.8701-31.644z" fill="#dfda66"/></g></g><g><path transform="matrix(4.1817 0 0 4.1817 -464.88 -405.02)" d="m115.19 95.585c-0.99044-16.607 19.603-31.906 26.928-28.456 13.89 6.5398 14.006 47.452-9.1336 61.825" fill="#bbc4cb"/><path transform="matrix(4.1817 0 0 4.1817 -464.88 -405.02)" d="m120.97 77.117c-3.3431 4.0681-5.1468 8.506-5.7606 12.368-0.58549 3.6845-0.0202 6.1004-0.0202 6.1004s-0.0115-2.4773 1.0596-5.8564c1.1495-3.6266 3.247-7.3607 6.389-11.253 3.1222-3.8325 6.992-6.9456 10.557-8.8098s6.7822-2.3557 8.4646-1.5636c4.2546 2.0032 7.3679 7.9833 8.4628 15.727 1.0948 7.7436 0.20449 17.122-3.051 25.552-2.3147 5.9635-5.2318 10.698-8.4521 14.366-3.0242 3.4449-5.6352 5.2064-5.6352 5.2064s2.8804-1.279 6.3972-4.4535c3.6786-3.3206 7.3109-8.1349 9.6969-14.344 3.4001-8.805 4.3249-18.49 3.1742-26.629-1.1507-8.139-4.3437-14.861-9.6764-17.372-2.7881-1.3127-6.5116-0.41825-10.378 1.6035-3.8663 2.0218-7.9181 5.2947-11.228 9.3574z" fill="#7d80a0"/><path transform="matrix(4.1817 0 0 4.1817 -464.88 -405.02)" d="m134.3 107.59c-0.59319 3.1328-1 5.367-1.9265 7.5939-0.8075 1.9409-1.7418 3.0701-1.7418 3.0701s1.1609-0.89799 2.301-2.7858c1.233-2.0415 2.0729-4.5842 2.6121-7.651 0.21839-1.1964 0.39527-2.4183 0.53818-3.6407 0.58331-4.9943-0.0709-9.957-0.0709-9.957s-0.61759 4.9533-1.186 9.8101c-0.14022 1.1994-0.31344 2.3949-0.52617 3.5604z" fill="#7d80a0"/></g><g stroke-width="5.8208"><path d="m-384.51 186.98c-15.011 44.191-23.908 89.911-20.629 138.68 96.928 29.394 190.16 51.389 277.92 62.461 10.04-47.837 20.001-95.753 24.068-149.56-105.73-23.828-187.95-34.591-281.36-51.574z" fill="#fff" fill-rule="evenodd" stroke="#929292"/><path d="m-374.77 188.98c22.725 41.003 76.593 80.035 98.563 118.33 55.796-16.307 108.9-46.124 163.3-70.805" fill="none" stroke="#929292"/><path d="m-279.64 321.21c33.833-2.5962 44.617-21.199 42.031-27.772-2.0463-5.2026-8.8441-7.9981-31.86 2.9881-3.4868-21.792-18.341-17.886-20.985-17.377-6.2901 1.2109-27.966 8.3701 10.813 42.161z" fill="#ca4d73" fill-rule="evenodd" stroke="#872129"/></g><g><path transform="translate(-9.7388e-6)" d="m-376.84 128.03c40.906-3.2565 77.481 10.828 105.96 40.52-47.579 1.2671-87.991-6.103-105.96-40.52z" fill="#bbc4cb"/><path d="m-329.4 128.68c-11.965-3.3173-23.553-3.6488-32.75-2.9122-8.944 0.71629-14.685 2.2664-14.685 2.2664s5.9413 0.3068 14.598 1.4381c9.3103 1.2167 19.298 3.1294 30.855 6.3458 12.145 3.3734 23.631 8.6038 34.346 15.645 5.8238 3.8252 12.039 7.7542 17.862 11.579 4.9352 3.2494 8.2987 5.5116 8.2987 5.5116s-1.999-3.5241-5.8017-8.2484c-3.8841-4.8254-9.3722-10.485-16.291-15.034-11.339-7.4517-23.544-13.012-36.432-16.592z" fill="#7d80a0"/></g><g><path transform="matrix(4.1817 0 0 4.1817 -464.88 -405.02)" d="m62.879 143.56c-5.2958 8.4954-10.788 10.488-15.205 9.2861-5.2568-1.4304-8.4653-7.759-8.2968-13.265 0.24964-8.1583 9.0141-6.4938 15.953-1.2494" fill="#bbc4cb" stroke="#000" stroke-width=".088073"/><g fill="#7d80a0"><path transform="matrix(4.1817 0 0 4.1817 -464.88 -405.02)" d="m63.146 144.44c0.16575-0.25744-0.26755-0.8782-0.26755-0.8782s-0.74725-0.117-0.90284 0.12466c-5.1061 7.9307-10.113 9.58-14.119 8.4899-4.8242-1.3127-7.9436-7.3524-7.7839-12.572 0.07522-2.4583 0.90359-3.7584 2.1643-4.4347s3.1127-0.70989 5.232-0.13366c4.0119 1.0823 7.8615 3.2977 7.8615 3.2977s-2.978-3.4036-7.4963-4.6409c-2.3245-0.63201-4.5296-0.67537-6.2552 0.25024-1.7256 0.92561-2.8126 2.839-2.8976 5.6187-0.17724 5.7922 3.1203 12.41 8.8097 13.958a9.4482 9.4482 0 0 0 1e-6 0 9.7983 9.7983 0 0 0 1e-6 0c4.6512 1.2656 10.367-0.86562 15.655-9.0795z"/><path d="m-203.19 193.18c-3.355-1.8718-6.9204-2.8371-9.7872-3.2878-2.8091-0.44164-4.72-0.37197-4.72-0.37197s1.5993 1.0459 3.9046 2.533c2.0281 1.3083 5.5752 3.6145 8.3528 5.1621 0.64987 0.36233 1.2945 0.73577 1.9332 1.1199 4.6032 2.7693 10.425 4.658 10.425 4.658s-2.8485-5.4925-8.044-8.617c-0.68203-0.41024-1.3705-0.80907-2.0647-1.1961z"/><path d="m-272.54 180.01c-0.72647-0.3596-1.9004-0.71762-2.6308-0.96571-0.8216-0.27905-1.4665-0.52342-1.4665-0.52342s-9e-3 0.689 0.35587 1.6178c0.36947 0.93993 1.1228 2.0469 2.3471 2.6624 0.34084 0.17027 0.69961 0.32936 1.0775 0.47702 2.9506 1.1361 5.818-0.31621 5.818-0.31621s-2.5781-1.752-4.6823-2.5898c-0.29391-0.11486-0.56583-0.23579-0.8188-0.36216z"/></g></g><g><path d="m-3.7458 25.401c-0.38178 0.29735 0.73141 2.4873 0.73141 2.4873s1.8616 1.6026 2.2303 1.3154c0.54956-0.42803 1.0989-0.85239 1.6478-1.274 7.3779-5.6556 14.031-10.727 19.822-17.102l2e-6 -3e-6c5.7218-6.319 9.1759-12.778 11.225-17.595 2.0391-4.793 2.7342-7.8313 2.7342-7.8313s-1.2215 2.8726-3.8635 7.2552c-2.6692 4.4278-6.7405 10.152-12.663 15.638-1e-6 -5e-7 -3e-6 2.4e-6 -3e-6 2.4e-6 -6.2738 5.8341-12.427 9.8389-20.19 15.813-0.55601 0.42704-1.114 0.85805-1.6736 1.2939z"/><path transform="rotate(8.3564 -138.92 112.28)" d="m-5.6728 21.997c-0.51016 0.29909 0.37399 2.9799 0.37399 2.9799s1.9062 2.0821 2.4178 1.7821c0.45622-0.26747 0.91472-0.53653 1.3752-0.80748 7.9543-4.6658 15.087-9.5598 21.097-15.532 1e-6 -1e-6 2e-6 -2e-6 2e-6 -3e-6 6.1238-6.0982 9.8765-12.379 12.119-17.201 2.213-4.7592 2.9345-7.8166 2.9345-7.8166s-1.3255 2.8542-4.2039 7.0987c-2.9435 4.3406-7.3195 9.6931-13.631 14.845-1e-6 4e-7 -2e-6 1.3e-6 -3e-6 2.2e-6 -6.3097 5.1653-13.121 9.13-21.115 13.849-0.45671 0.26874-0.91264 0.5363-1.3675 0.80298z"/><path transform="rotate(22.063 -106.73 63.715)" d="m-0.3021 20.684c-0.36456 0.21277 0.48521 2.5072 0.48521 2.5072s1.5794 1.8687 1.9443 1.6557c0.53978-0.31503 1.0784-0.62957 1.6155-0.94439 7.1876-4.1919 13.652-8.5797 18.907-14.227 0-1e-6 1e-6 -2e-6 1e-6 -3e-6 5.3116-5.7501 8.2803-11.929 9.935-16.383 1.6665-4.4857 2.1421-7.306 2.1421-7.306s-1.0177 2.6784-3.3065 6.769c-2.2803 4.0754-5.9091 9.5234-11.319 14.332-1e-6 4e-7 -2e-6 1.2e-6 -2e-6 2.1e-6 -5.4303 4.8686-11.59 8.4127-18.796 12.657-0.53284 0.3123-1.0689 0.62535-1.6078 0.93988z"/></g><g fill="#cd4e6d"><path d="m-376.81 142.69c-8.1409 1.8414-16.009 4.8874-16.009 4.8874s8.4133-0.63682 16.554-2.4782l3.6174-0.81824c8.1011-1.8324 15.93-4.8694 15.93-4.8694s-8.3736 0.62783-16.475 2.4602z"/><path transform="translate(21.202 3.1517)" d="m-386.59 144.7c-12.163 2.6652-24.061 6.5367-24.061 6.5367s12.427-1.4588 24.59-4.124l5.4046-1.1843c12.103-2.6522 23.943-6.5107 23.943-6.5107s-12.368 1.4458-24.471 4.0979z"/><path transform="translate(37.928 8.8463)" d="m-386.22 145.19c-8.6739 1.0499-17.199 3.3259-17.199 3.3259s8.8223 0.17614 17.496-0.87377l3.8543-0.46654c8.6316-1.0448 17.115-3.3156 17.115-3.3156s-8.78-0.18127-17.412 0.86352z"/></g><g fill="#cd4e6d"><path transform="translate(232.9 52.828)" d="m-395.13 144.74c-6.3964 1.0984-12.584 3.4139-12.584 3.4139s6.6054 0.11882 13.002-0.97955l2.8423-0.48807c6.3652-1.093 12.521-3.4032 12.521-3.4032s-6.5742-0.12418-12.939 0.96883z"/><path transform="translate(254.75 58.087)" d="m-402.26 145.26c-7.7213 2.3776-15.079 5.9355-15.079 5.9355s8.0848-1.1973 15.806-3.5749l3.431-1.0565c7.6836-2.366 15.004-5.9123 15.004-5.9123s-8.047 1.1857-15.731 3.5516z"/><path transform="translate(296.49 57.681)" d="m-407.39 146.7c-12.77 1.9893-25.349 5.1988-25.349 5.1988s12.96-0.76897 25.729-2.7582l5.6743-0.88394c12.707-1.9795 25.224-5.1794 25.224-5.1794s-12.897 0.75926-25.605 2.7388z"/><path transform="translate(316.75 62.949)" d="m-409.74 146.8c-11.65 1.9436-23.097 5.1053-23.097 5.1053s11.854-0.7254 23.504-2.669l5.1769-0.86363c11.593-1.9341 22.984-5.0863 22.984-5.0863s-11.797 0.71591-23.39 2.65z"/><path transform="translate(321.71 69.736)" d="m-399.63 145.02c-6.4878 1.2126-12.749 3.6392-12.749 3.6392s6.7147 1e-3 13.202-1.2112l2.8829-0.53882c6.4561-1.2067 12.685-3.6273 12.685-3.6273s-6.683-7e-3 -13.139 1.1994z"/></g></g></svg>
