<svg xmlns:rdf="http://www.w3.org/1999/02/22-rdf-syntax-ns#" xmlns="http://www.w3.org/2000/svg" height="43.049" width="42.975" version="1.1" xmlns:cc="http://creativecommons.org/ns#" xmlns:dc="http://purl.org/dc/elements/1.1/">
 <path fill="#fff" d="m39.402 0-7.923 7.9238-3.215-3.2148c-0.283-0.2828-0.617-0.4238-1.004-0.4238-0.17857 0-0.36514 0.03693-0.55859 0.11133-0.58 0.253-0.869 0.6914-0.869 1.3164v10c0 0.3869 0.14109 0.72312 0.42383 1.0059 0.28274 0.28274 0.617 0.42383 1.0039 0.42383h10c0.625 0 1.0634-0.29734 1.3164-0.89258 0.25298-0.58036 0.14881-1.0946-0.3125-1.541l-3.213-3.215 7.924-7.9237-3.573-3.5703zm-35.832 0.07422-3.5703 3.5723 7.9238 7.9235-3.2148 3.213c-0.46131 0.44643-0.56548 0.96066-0.3125 1.541 0.25298 0.59524 0.69141 0.89258 1.3164 0.89258h10c0.3869 0 0.72312-0.14109 1.0059-0.42383 0.28274-0.28274 0.42383-0.617 0.42383-1.0039v-10c0-0.625-0.29734-1.0654-0.89258-1.3184-0.17857-0.07441-0.35854-0.11133-0.53711-0.11133-0.3869 0-0.72117 0.14109-1.0039 0.42383l-3.215 3.2149-7.9237-7.9238zm2.2188 25.758c-0.625 0-1.0634 0.29734-1.3164 0.89258-0.25298 0.58036-0.14881 1.0926 0.3125 1.5391l3.2129 3.2148-7.9238 7.9238 3.5723 3.5723 7.9238-7.9238 3.2148 3.2129c0.44643 0.46131 0.95871 0.56548 1.5391 0.3125 0.59524-0.25298 0.89258-0.69141 0.89258-1.3164v-10c0-0.3869-0.14109-0.72117-0.42383-1.0039-0.28274-0.28274-0.617-0.42383-1.0039-0.42383h-10zm21.471 0.07422c-0.3869 0-0.72117 0.14109-1.0039 0.42383-0.28274 0.28274-0.42383 0.617-0.42383 1.0039v10c0 0.625 0.28878 1.0654 0.86914 1.3184 0.61012 0.25298 1.131 0.14881 1.5625-0.3125l3.2148-3.2148 7.9238 7.9238 3.5723-3.5703-7.9238-7.9258 3.2129-3.2129c0.46131-0.44643 0.56548-0.96066 0.3125-1.541-0.25298-0.59524-0.69141-0.89258-1.3164-0.89258h-10z"/>
</svg>
