<?xml version="1.0" encoding="UTF-8" standalone="no"?>
<svg
   xmlns:dc="http://purl.org/dc/elements/1.1/"
   xmlns:cc="http://creativecommons.org/ns#"
   xmlns:rdf="http://www.w3.org/1999/02/22-rdf-syntax-ns#"
   xmlns:svg="http://www.w3.org/2000/svg"
   xmlns="http://www.w3.org/2000/svg"
   xmlns:sodipodi="http://sodipodi.sourceforge.net/DTD/sodipodi-0.dtd"
   xmlns:inkscape="http://www.inkscape.org/namespaces/inkscape"
   height="27.142857"
   width="31.428572"
   version="1.1"
   id="svg2"
   inkscape:version="0.91 r13725"
   sodipodi:docname="vol-mid-icon.svg">
  <metadata
     id="metadata10">
    <rdf:RDF>
      <cc:Work
         rdf:about="">
        <dc:format>image/svg+xml</dc:format>
        <dc:type
           rdf:resource="http://purl.org/dc/dcmitype/StillImage" />
        <dc:title></dc:title>
      </cc:Work>
    </rdf:RDF>
  </metadata>
  <defs
     id="defs8" />
  <sodipodi:namedview
     pagecolor="#000000"
     bordercolor="#666666"
     borderopacity="1"
     objecttolerance="10"
     gridtolerance="10"
     guidetolerance="10"
     inkscape:pageopacity="0"
     inkscape:pageshadow="2"
     inkscape:window-width="1600"
     inkscape:window-height="837"
     id="namedview6"
     showgrid="false"
     fit-margin-top="0"
     fit-margin-left="0"
     fit-margin-right="0"
     fit-margin-bottom="0"
     inkscape:zoom="10.96425"
     inkscape:cx="28.607138"
     inkscape:cy="11.544908"
     inkscape:window-x="-8"
     inkscape:window-y="-8"
     inkscape:window-maximized="1"
     inkscape:current-layer="svg2" />
  <g
     transform="translate(-34.745762,-12.820824)"
     style="font-style:normal;font-weight:normal;font-size:40px;line-height:125%;font-family:sans-serif;letter-spacing:0px;word-spacing:0px;fill:#ffffff;fill-opacity:1;stroke:none;stroke-width:1px;stroke-linecap:butt;stroke-linejoin:miter;stroke-opacity:1"
     id="text5491">
    <path
       inkscape:connector-curvature="0"
       d="m 51.888619,14.249396 0,24.285714 c 0,0.386905 -0.141369,0.721726 -0.424107,1.004464 -0.282738,0.282738 -0.617559,0.424107 -1.004464,0.424107 -0.386905,0 -0.721727,-0.141369 -1.004465,-0.424107 l -7.433035,-7.433035 -5.848215,0 c -0.386905,0 -0.721726,-0.141369 -1.004464,-0.424108 -0.282738,-0.282738 -0.424107,-0.617559 -0.424107,-1.004464 l 0,-8.571428 c 0,-0.386905 0.141369,-0.721727 0.424107,-1.004465 0.282738,-0.282738 0.617559,-0.424107 1.004464,-0.424107 l 5.848215,0 7.433035,-7.433036 c 0.282738,-0.282738 0.61756,-0.424107 1.004465,-0.424107 0.386905,0 0.721726,0.141369 1.004464,0.424107 0.282738,0.282739 0.424107,0.61756 0.424107,1.004465 z m 7.611607,8.973214 c 0.639881,0.982143 0.959822,2.03869 0.959822,3.169643 0,1.130952 -0.319941,2.1875 -0.959822,3.169643 -0.625,0.967262 -1.458333,1.659226 -2.5,2.075893 -0.148809,0.0744 -0.334821,0.111607 -0.558036,0.111607 -0.386905,0 -0.721726,-0.133929 -1.004464,-0.401786 -0.282738,-0.282738 -0.424107,-0.625 -0.424107,-1.026786 0,-0.3125 0.08929,-0.572917 0.267857,-0.78125 0.178571,-0.223214 0.394345,-0.409226 0.647322,-0.558035 0.252976,-0.163691 0.505952,-0.334822 0.758928,-0.513393 0.252976,-0.193453 0.46875,-0.46131 0.647322,-0.803572 0.178571,-0.342262 0.267857,-0.766369 0.267857,-1.272321 0,-0.505953 -0.08929,-0.93006 -0.267857,-1.272322 -0.178572,-0.342261 -0.394346,-0.602678 -0.647322,-0.78125 -0.252976,-0.193452 -0.505952,-0.364583 -0.758928,-0.513392 -0.252977,-0.163691 -0.468751,-0.349703 -0.647322,-0.558036 -0.178571,-0.223215 -0.267857,-0.491072 -0.267857,-0.803572 0,-0.401785 0.141369,-0.736607 0.424107,-1.004464 0.282738,-0.282738 0.617559,-0.424107 1.004464,-0.424107 0.223215,0 0.409227,0.0372 0.558036,0.111607 1.041667,0.401786 1.875,1.09375 2.5,2.075893 z m 4.776786,-3.125 c 1.264881,1.919643 1.897321,4.017857 1.897321,6.294643 0,2.276785 -0.63244,4.38244 -1.897321,6.316964 -1.264881,1.919643 -2.938989,3.318452 -5.022322,4.196429 -0.193452,0.07441 -0.379464,0.111607 -0.558035,0.111607 -0.401786,0 -0.744048,-0.141369 -1.026786,-0.424107 -0.282738,-0.282738 -0.424107,-0.61756 -0.424107,-1.004465 0,-0.580357 0.290179,-1.019345 0.870536,-1.316964 0.833333,-0.431547 1.398809,-0.758928 1.696428,-0.982143 1.101191,-0.803571 1.956845,-1.808036 2.566964,-3.013393 0.625,-1.220238 0.9375,-2.514881 0.9375,-3.883928 0,-1.369048 -0.3125,-2.65625 -0.9375,-3.861607 -0.610119,-1.220238 -1.465773,-2.232143 -2.566964,-3.035715 -0.297619,-0.223214 -0.863095,-0.550595 -1.696428,-0.982142 -0.580357,-0.297619 -0.870536,-0.736608 -0.870536,-1.316965 0,-0.386905 0.141369,-0.721726 0.424107,-1.004464 0.282738,-0.282738 0.617559,-0.424107 1.004464,-0.424107 0.193453,0 0.386905,0.0372 0.580357,0.111607 2.083333,0.877976 3.757441,2.284226 5.022322,4.21875 z"
       style="fill:#ffffff;fill-opacity:1"
       id="path5496"
       sodipodi:nodetypes="ssssscsssssscsssscsccscscccssscccscscccsccssscccscccssscc" />
  </g>
</svg>
