<svg xmlns="http://www.w3.org/2000/svg" height="27.142857" width="31.428572">
	<path style="fill:#fff" d="m 17.142857,1.428572 v 24.285714 c 0,0.386905 -0.141369,0.721726 -0.424107,1.004464 -0.282738,0.282738 -0.617559,0.424107 -1.004464,0.424107 -0.386905,0 -0.721727,-0.141369 -1.004465,-0.424107 L 7.276786,19.285715 H 1.428571 c -0.386905,0 -0.721726,-0.141369 -1.004464,-0.424108 C 0.141369,18.578869 0,18.244048 0,17.857143 V 9.285715 C 0,8.89881 0.141369,8.563988 0.424107,8.28125 0.706845,7.998512 1.041666,7.857143 1.428571,7.857143 H 7.276786 L 14.709821,0.424107 C 14.992559,0.141369 15.327381,0 15.714286,0 c 0.386905,0 0.721726,0.141369 1.004464,0.424107 0.282738,0.282739 0.424107,0.61756 0.424107,1.004465 z m 7.611607,8.973214 c 0.639881,0.982143 0.959822,2.03869 0.959822,3.169643 0,1.130952 -0.319941,2.1875 -0.959822,3.169643 -0.625,0.967262 -1.458333,1.659226 -2.5,2.075893 -0.148809,0.0744 -0.334821,0.111607 -0.558036,0.111607 -0.386905,0 -0.721726,-0.133929 -1.004464,-0.401786 -0.282738,-0.282738 -0.424107,-0.625 -0.424107,-1.026786 0,-0.3125 0.08929,-0.572917 0.267857,-0.78125 0.178571,-0.223214 0.394345,-0.409226 0.647322,-0.558035 0.252976,-0.163691 0.505952,-0.334822 0.758928,-0.513393 0.252976,-0.193453 0.46875,-0.46131 0.647322,-0.803572 0.178571,-0.342262 0.267857,-0.766369 0.267857,-1.272321 0,-0.505953 -0.08929,-0.93006 -0.267857,-1.272322 -0.178572,-0.342261 -0.394346,-0.602678 -0.647322,-0.78125 -0.252976,-0.193452 -0.505952,-0.364583 -0.758928,-0.513392 -0.252977,-0.163691 -0.468751,-0.349703 -0.647322,-0.558036 -0.178571,-0.223215 -0.267857,-0.491072 -0.267857,-0.803572 0,-0.401785 0.141369,-0.736607 0.424107,-1.004464 0.282738,-0.282738 0.617559,-0.424107 1.004464,-0.424107 0.223215,0 0.409227,0.0372 0.558036,0.111607 1.041667,0.401786 1.875,1.09375 2.5,2.075893 z m 4.776786,-3.125 c 1.264881,1.919643 1.897321,4.017857 1.897321,6.294643 0,2.276785 -0.63244,4.38244 -1.897321,6.316964 -1.264881,1.919643 -2.938989,3.318452 -5.022322,4.196429 -0.193452,0.07441 -0.379464,0.111607 -0.558035,0.111607 -0.401786,0 -0.744048,-0.141369 -1.026786,-0.424107 C 22.641369,23.489584 22.5,23.154762 22.5,22.767857 c 0,-0.580357 0.290179,-1.019345 0.870536,-1.316964 0.833333,-0.431547 1.398809,-0.758928 1.696428,-0.982143 1.101191,-0.803571 1.956845,-1.808036 2.566964,-3.013393 0.625,-1.220238 0.9375,-2.514881 0.9375,-3.883928 0,-1.369048 -0.3125,-2.65625 -0.9375,-3.861607 C 27.023809,8.489584 26.168155,7.477679 25.066964,6.674107 24.769345,6.450893 24.203869,6.123512 23.370536,5.691965 22.790179,5.394346 22.5,4.955357 22.5,4.375 c 0,-0.386905 0.141369,-0.721726 0.424107,-1.004464 0.282738,-0.282738 0.617559,-0.424107 1.004464,-0.424107 0.193453,0 0.386905,0.0372 0.580357,0.111607 2.083333,0.877976 3.757441,2.284226 5.022322,4.21875 z" />
</svg>
